<?xml version="1.0" standalone="no"?>
<!DOCTYPE svg PUBLIC "-//W3C//DTD SVG 20010904//EN"
 "http://www.w3.org/TR/2001/REC-SVG-20010904/DTD/svg10.dtd">
<svg version="1.0" xmlns="http://www.w3.org/2000/svg"
 width="512.000000pt" height="512.000000pt" viewBox="0 0 512.000000 512.000000"
 preserveAspectRatio="xMidYMid meet">
<metadata>
Created by potrace 1.14, written by Peter Selinger 2001-2017
</metadata>
<g transform="translate(0.000000,512.000000) scale(0.100000,-0.100000)"
fill="#000000" stroke="none">
<path d="M2379 5116 c-2 -2 -35 -6 -74 -9 -231 -20 -564 -106 -760 -197 -33
-15 -81 -37 -107 -49 -26 -12 -87 -44 -134 -71 -48 -28 -88 -50 -90 -50 -7 0
-178 -122 -244 -174 -111 -87 -288 -260 -375 -366 -20 -25 -45 -55 -56 -67
-46 -54 -171 -247 -226 -348 -166 -307 -263 -618 -301 -965 -9 -87 -8 -460 2
-535 4 -33 10 -76 12 -95 5 -40 6 -46 29 -155 45 -219 141 -489 233 -655 14
-25 36 -65 49 -90 31 -57 165 -258 190 -285 10 -11 35 -42 56 -69 88 -116 286
-307 433 -417 304 -229 659 -390 1014 -462 214 -44 290 -51 525 -52 169 0 311
8 370 20 11 3 34 6 50 9 165 23 466 113 613 182 41 19 76 34 78 34 11 0 222
121 304 176 249 163 471 374 649 614 207 279 366 628 441 968 26 119 30 147
47 297 12 104 8 490 -5 570 -6 39 -14 86 -17 105 -2 19 -7 46 -10 60 -3 14
-10 46 -15 71 -23 116 -93 334 -150 464 -61 141 -188 371 -247 445 -6 8 -38
51 -71 95 -287 385 -727 702 -1195 864 -103 35 -291 86 -357 97 -14 2 -38 6
-55 9 -29 4 -51 8 -140 21 -44 6 -460 15 -466 10z"/>
</g>
</svg>
